<svg id="Capa_1" enable-background="new 0 0 512 512" height="512" viewBox="0 0 512 512" width="512" xmlns="http://www.w3.org/2000/svg"><g><path d="m400.329 512c19.544 0 35.387-15.843 35.387-35.387 0-53.611-17.168-101.895-52.486-147.61-57.2-74.036-147.69-123.57-198.453-189.275-25.733-33.309-37.718-66.464-37.718-104.34 0-19.545-15.844-35.388-35.388-35.388s-35.387 15.843-35.387 35.387c0 53.611 17.168 101.895 52.486 147.61 57.2 74.036 147.69 123.57 198.453 189.275 25.733 33.309 37.718 66.464 37.718 104.34 0 19.545 15.843 35.388 35.388 35.388z" fill="#7acefa"/><path d="m375.292 63.613h-119.292c-11.845 0-21.447-9.602-21.447-21.447s9.602-21.447 21.447-21.447h119.292c11.845 0 21.447 9.602 21.447 21.447s-9.602 21.447-21.447 21.447z" fill="#eda1ab"/><path d="m256 63.613h-119.292c-11.845 0-21.447-9.602-21.447-21.447s9.602-21.447 21.447-21.447h119.292c11.845 0 21.447 9.602 21.447 21.447s-9.602 21.447-21.447 21.447z" fill="#f6ee86"/><path d="m256 150.852h-92.83c-11.845 0-21.447-9.602-21.447-21.447s9.602-21.447 21.447-21.447h92.83c11.845 0 21.447 9.602 21.447 21.447s-9.602 21.447-21.447 21.447z" fill="#eda1ab"/><path d="m348.83 150.852h-92.83c-11.845 0-21.447-9.602-21.447-21.447s9.602-21.447 21.447-21.447h92.83c11.845 0 21.447 9.602 21.447 21.447s-9.602 21.447-21.447 21.447z" fill="#f6ee86"/><path d="m256 491.28h-119.292c-11.845 0-21.447-9.602-21.447-21.447s9.602-21.447 21.447-21.447h119.292c11.845 0 21.447 9.602 21.447 21.447s-9.602 21.447-21.447 21.447z" fill="#eda1ab"/><path d="m136.708 448.387c-11.845 0-21.447 9.602-21.447 21.447s9.602 21.447 21.447 21.447h39.6c3.224-14.212-.069-21.599 4.614-42.894z" fill="#e8899e"/><path d="m375.292 491.28h-119.292c-11.845 0-21.447-9.602-21.447-21.447s9.602-21.447 21.447-21.447h119.292c11.845 0 21.447 9.602 21.447 21.447s-9.602 21.447-21.447 21.447z" fill="#f6ee86"/><path d="m348.83 404.042h-92.83c-11.845 0-21.447-9.602-21.447-21.447s9.602-21.447 21.447-21.447h92.83c11.845 0 21.447 9.602 21.447 21.447s-9.602 21.447-21.447 21.447z" fill="#eda1ab"/><path d="m256 404.042h-92.83c-11.845 0-21.447-9.602-21.447-21.447s9.602-21.447 21.447-21.447h92.83c11.845 0 21.447 9.602 21.447 21.447s-9.602 21.447-21.447 21.447z" fill="#f6ee86"/><path d="m163.17 404.042h36.895c10.159-15.616 22.997-29.89 36.237-42.894h-73.132c-11.845 0-21.447 9.602-21.447 21.447s9.602 21.447 21.447 21.447z" fill="#f2d98d"/><path d="m348.83 107.958h-36.895c-10.159 15.616-22.997 29.89-36.237 42.894h73.132c11.845 0 21.447-9.602 21.447-21.447s-9.602-21.447-21.447-21.447z" fill="#f2d98d"/><path d="m375.292 63.613c11.845 0 21.447-9.602 21.447-21.447s-9.602-21.447-21.447-21.447h-39.6c-3.224 14.212.069 21.599-4.613 42.894z" fill="#e8899e"/><path d="m111.671 512c-19.544 0-35.387-15.843-35.387-35.387 0-53.611 17.168-101.895 52.486-147.61 57.2-74.036 147.69-123.57 198.453-189.275 25.733-33.309 37.718-66.464 37.718-104.34 0-19.545 15.843-35.388 35.388-35.388 19.544 0 35.387 15.843 35.387 35.387 0 53.611-17.168 101.895-52.486 147.61-57.2 74.036-147.69 123.57-198.453 189.275-25.733 33.309-37.718 66.464-37.718 104.34 0 19.545-15.844 35.388-35.388 35.388z" fill="#a3defe"/></g></svg>